<?xml version="1.0" encoding="iso-8859-1"?>
<!-- Generator: Adobe Illustrator 19.0.0, SVG Export Plug-In . SVG Version: 6.00 Build 0)  -->
<svg version="1.1" id="Layer_1" xmlns="http://www.w3.org/2000/svg" xmlns:xlink="http://www.w3.org/1999/xlink" x="0px" y="0px"
	 viewBox="0 0 512 512" style="enable-background:new 0 0 512 512;" xml:space="preserve">
<g>
	<g>
		<path d="M447.147,200.533h-39.253c-4.71,0-8.533,3.823-8.533,8.533s3.823,8.533,8.533,8.533h39.253
			c4.71,0,8.533-3.823,8.533-8.533S451.857,200.533,447.147,200.533z"/>
	</g>
</g>
<g>
	<g>
		<path d="M368.64,200.533h-39.253c-4.71,0-8.533,3.823-8.533,8.533s3.823,8.533,8.533,8.533h39.253c4.71,0,8.533-3.823,8.533-8.533
			S373.35,200.533,368.64,200.533z"/>
	</g>
</g>
<g>
	<g>
		<path d="M503.467,200.533H486.4c-4.71,0-8.533,3.823-8.533,8.533s3.823,8.533,8.533,8.533h8.533v8.533
			c0,4.71,3.823,8.533,8.533,8.533s8.533-3.823,8.533-8.533v-17.067C512,204.356,508.177,200.533,503.467,200.533z"/>
	</g>
</g>
<g>
	<g>
		<path d="M503.467,309.026c-4.71,0-8.533,3.823-8.533,8.533v30.473c0,4.71,3.823,8.533,8.533,8.533s8.533-3.823,8.533-8.533
			v-30.473C512,312.849,508.177,309.026,503.467,309.026z"/>
	</g>
</g>
<g>
	<g>
		<path d="M503.467,248.073c-4.71,0-8.533,3.823-8.533,8.533v30.473c0,4.71,3.823,8.533,8.533,8.533s8.533-3.823,8.533-8.533
			v-30.473C512,251.895,508.177,248.073,503.467,248.073z"/>
	</g>
</g>
<g>
	<g>
		<path d="M503.467,369.98c-4.71,0-8.533,3.823-8.533,8.533v30.473c0,4.71,3.823,8.533,8.533,8.533s8.533-3.823,8.533-8.533v-30.473
			C512,373.803,508.177,369.98,503.467,369.98z"/>
	</g>
</g>
<g>
	<g>
		<path d="M503.467,430.933c-4.71,0-8.533,3.823-8.533,8.533V448H486.4c-4.71,0-8.533,3.823-8.533,8.533s3.823,8.533,8.533,8.533
			h17.067c4.71,0,8.533-3.823,8.533-8.533v-17.067C512,434.756,508.177,430.933,503.467,430.933z"/>
	</g>
</g>
<g>
	<g>
		<path d="M167.381,448h-35.447c-4.71,0-8.533,3.823-8.533,8.533s3.823,8.533,8.533,8.533h35.447c4.71,0,8.533-3.823,8.533-8.533
			S172.092,448,167.381,448z"/>
	</g>
</g>
<g>
	<g>
		<path d="M96.495,448H61.047c-4.71,0-8.533,3.823-8.533,8.533s3.823,8.533,8.533,8.533h35.447c4.71,0,8.533-3.823,8.533-8.533
			S101.205,448,96.495,448z"/>
	</g>
</g>
<g>
	<g>
		<path d="M238.276,448h-35.448c-4.71,0-8.533,3.823-8.533,8.533s3.823,8.533,8.533,8.533h35.448c4.71,0,8.533-3.823,8.533-8.533
			S242.995,448,238.276,448z"/>
	</g>
</g>
<g>
	<g>
		<path d="M309.171,448h-35.447c-4.71,0-8.533,3.823-8.533,8.533s3.823,8.533,8.533,8.533h35.447c4.71,0,8.533-3.823,8.533-8.533
			S313.882,448,309.171,448z"/>
	</g>
</g>
<g>
	<g>
		<path d="M450.953,448h-35.447c-4.71,0-8.533,3.823-8.533,8.533s3.823,8.533,8.533,8.533h35.447c4.71,0,8.533-3.823,8.533-8.533
			S455.663,448,450.953,448z"/>
	</g>
</g>
<g>
	<g>
		<path d="M380.066,448h-35.447c-4.71,0-8.533,3.823-8.533,8.533s3.823,8.533,8.533,8.533h35.447c4.71,0,8.533-3.823,8.533-8.533
			S384.777,448,380.066,448z"/>
	</g>
</g>
<g>
	<g>
		<path d="M25.6,448h-8.533v-8.533c0-4.71-3.823-8.533-8.533-8.533S0,434.756,0,439.467v17.067c0,4.71,3.823,8.533,8.533,8.533H25.6
			c4.71,0,8.533-3.823,8.533-8.533S30.31,448,25.6,448z"/>
	</g>
</g>
<g>
	<g>
		<path d="M8.533,309.035c-4.71,0-8.533,3.823-8.533,8.533v30.473c0,4.71,3.823,8.533,8.533,8.533s8.533-3.823,8.533-8.533v-30.473
			C17.067,312.858,13.244,309.035,8.533,309.035z"/>
	</g>
</g>
<g>
	<g>
		<path d="M8.533,248.081c-4.71,0-8.533,3.823-8.533,8.533v30.473c0,4.71,3.823,8.533,8.533,8.533s8.533-3.823,8.533-8.533v-30.473
			C17.067,251.904,13.244,248.081,8.533,248.081z"/>
	</g>
</g>
<g>
	<g>
		<path d="M8.533,369.988c-4.71,0-8.533,3.823-8.533,8.533v30.473c0,4.71,3.823,8.533,8.533,8.533s8.533-3.823,8.533-8.533v-30.473
			C17.067,373.811,13.244,369.988,8.533,369.988z"/>
	</g>
</g>
<g>
	<g>
		<path d="M25.6,200.533H8.533c-4.71,0-8.533,3.823-8.533,8.533v17.067c0,4.71,3.823,8.533,8.533,8.533s8.533-3.823,8.533-8.533
			V217.6H25.6c4.71,0,8.533-3.823,8.533-8.533S30.31,200.533,25.6,200.533z"/>
	</g>
</g>
<g>
	<g>
		<path d="M99.558,200.533H62.575c-4.71,0-8.533,3.823-8.533,8.533s3.823,8.533,8.533,8.533h36.983c4.71,0,8.533-3.823,8.533-8.533
			S104.269,200.533,99.558,200.533z"/>
	</g>
</g>
<g>
	<g>
		<path d="M440.158,321.587L293.547,216.866c3.012-1.323,5.12-4.309,5.12-7.799c0-4.71-3.823-8.533-8.533-8.533h-17.067
			c-0.657,0-1.246,0.23-1.86,0.375l-1.075-0.768l170.01-120.653c3.029-2.15,4.318-6.016,3.191-9.549
			C442.206,66.406,438.912,64,435.2,64h-76.8c-1.758,0-3.473,0.538-4.915,1.553l-140.032,98.543l-37.06-29.645
			c1.801-6.11,2.807-12.561,2.807-19.251c0-37.641-30.626-68.267-68.267-68.267c-37.641,0-68.267,30.626-68.267,68.267
			c0,37.641,30.626,68.267,68.267,68.267c4.335,0,8.559-0.452,12.663-1.229l0.009,0.009l30.72,18.432
			c-0.256-0.017-0.469-0.145-0.725-0.145h-17.067c-4.71,0-8.533,3.823-8.533,8.533s3.823,8.533,8.533,8.533h0.888l-13.858,9.754
			c-4.096-0.768-8.311-1.22-12.629-1.22c-37.641,0-68.267,30.626-68.267,68.267c0,37.641,30.626,68.267,68.267,68.267
			c37.641,0,68.267-30.626,68.267-68.267c0-9.327-1.894-18.219-5.291-26.334c0.58-0.239,1.169-0.469,1.698-0.845l40.465-28.715
			l137.412,96.998c1.434,1.016,3.149,1.562,4.915,1.562h76.8c3.712,0,6.997-2.398,8.124-5.931
			C444.459,327.603,443.179,323.746,440.158,321.587z M110.933,149.333c-18.825,0-34.133-15.309-34.133-34.133
			c0-18.825,15.309-34.133,34.133-34.133s34.133,15.309,34.133,34.133C145.067,134.025,129.758,149.333,110.933,149.333z
			 M110.933,328.533c-18.825,0-34.133-15.309-34.133-34.133c0-18.825,15.309-34.133,34.133-34.133s34.133,15.309,34.133,34.133
			C145.067,313.225,129.758,328.533,110.933,328.533z M213.419,209.067c-4.71,0-8.576-3.823-8.576-8.533s3.78-8.533,8.491-8.533
			h0.085c4.71,0,8.533,3.823,8.533,8.533S218.129,209.067,213.419,209.067z"/>
	</g>
</g>
<g>
</g>
<g>
</g>
<g>
</g>
<g>
</g>
<g>
</g>
<g>
</g>
<g>
</g>
<g>
</g>
<g>
</g>
<g>
</g>
<g>
</g>
<g>
</g>
<g>
</g>
<g>
</g>
<g>
</g>
</svg>
