<?xml version="1.0" encoding="iso-8859-1"?>
<!-- Generator: Adobe Illustrator 19.0.0, SVG Export Plug-In . SVG Version: 6.00 Build 0)  -->
<svg version="1.1" id="Layer_1" xmlns="http://www.w3.org/2000/svg" xmlns:xlink="http://www.w3.org/1999/xlink" x="0px" y="0px"
	 viewBox="0 0 512 512" style="enable-background:new 0 0 512 512;" xml:space="preserve">
<g transform="translate(1 1)">
	<g>
		<path style="fill:#FFE100;" d="M203.8,263.533c-93.867,0-170.667-30.72-170.667-68.267v119.467
			c0,37.547,76.8,68.267,170.667,68.267s145.067-30.72,145.067-68.267V195.267C348.867,232.813,297.667,263.533,203.8,263.533"/>
		<path style="fill:#FFE100;" d="M348.867,203.8c0,28.16,38.4,51.2,85.333,51.2h17.067c2.56,0,4.267,1.707,4.267,4.267V362.52
			c0,2.56-1.707,4.267-4.267,4.267H434.2c-46.933,0-85.333-23.04-85.333-51.2"/>
		<path style="fill:#FFE100;" d="M470.893,365.933H434.2V255h36.693c3.413,0,5.973,2.56,5.973,5.973v98.987
			C476.867,363.373,474.307,365.933,470.893,365.933"/>
	</g>
	<path style="fill:#FFA800;" d="M487.96,255h-17.067c3.413,0,5.973,2.56,5.973,5.973v98.987c0,3.413-2.56,5.973-5.973,5.973h17.067
		c3.413,0,5.973-2.56,5.973-5.973v-98.987C493.933,257.56,491.373,255,487.96,255"/>
	<path style="fill:#FFE100;" d="M505.027,255H487.96c3.413,0,5.973,2.56,5.973,5.973v98.987c0,3.413-2.56,5.973-5.973,5.973h17.067
		c3.413,0,5.973-2.56,5.973-5.973v-98.987C511,257.56,508.44,255,505.027,255"/>
	<path d="M489.667,374.467H434.2c-52.907,0-93.867-26.453-93.867-59.733H357.4c0,23.04,34.987,42.667,76.8,42.667h51.2v-93.867
		h-51.2c-52.907,0-93.867-26.453-93.867-59.733H357.4c0,23.04,34.987,42.667,76.8,42.667h55.467c6.827,0,12.8,5.973,12.8,12.8
		V362.52C502.467,368.493,496.493,374.467,489.667,374.467z"/>
	<path d="M487.96,374.467h-45.227v-128h45.227c7.68,0,14.507,6.827,14.507,14.507v98.987
		C502.467,367.64,495.64,374.467,487.96,374.467z M459.8,357.4h25.6v-93.867h-25.6V357.4z"/>
	<path style="fill:#FECC00;" d="M323.267,203.8c0,37.547-51.2,59.733-145.067,59.733S7.533,232.813,7.533,195.267
		s76.8-59.733,170.667-59.733S323.267,166.253,323.267,203.8"/>
	<path style="fill:#FFA800;" d="M203.8,127c-39.253,0-75.947,5.12-104.96,14.507c23.893-4.267,50.347-5.973,79.36-5.973
		c93.867,0,145.067,30.72,145.067,68.267c0,35.84-45.227,57.173-130.56,59.733c3.413,0,6.827,0,11.093,0
		c93.867,0,145.067-30.72,145.067-68.267S297.667,127,203.8,127"/>
	<path style="fill:#FFFFFF;" d="M33.133,195.267c0-35.84,69.973-65.707,157.867-68.267c-4.267,0-8.533,0-12.8,0
		C84.333,127,7.533,157.72,7.533,195.267s76.8,68.267,170.667,68.267c4.267,0,8.533,0,12.8,0
		C103.107,260.973,33.133,231.107,33.133,195.267"/>
	<path style="fill:#FFE100;" d="M212.333,195.267c0,14.507-26.453,25.6-59.733,25.6s-34.133-11.093-34.133-25.6
		s0.853-25.6,34.133-25.6S212.333,180.76,212.333,195.267"/>
	<path style="fill:#FFA800;" d="M178.2,169.667c-4.267,0-8.533,0-12.8,0.853c26.453,2.56,46.933,12.8,46.933,24.747
		s-20.48,22.187-46.933,24.747c4.267,0,8.533,0.853,12.8,0.853c33.28,0,59.733-11.093,59.733-25.6S211.48,169.667,178.2,169.667"/>
	<path style="fill:#FFFFFF;" d="M33.133,314.733v-83.627c-16.213-10.24-25.6-23.04-25.6-35.84v119.467
		C7.533,352.28,84.333,383,178.2,383c4.267,0,8.533,0,12.8,0C103.107,380.44,33.133,350.573,33.133,314.733"/>
	<path d="M178.2,272.067c-100.693,0-179.2-34.133-179.2-76.8s78.507-76.8,179.2-76.8s179.2,34.133,179.2,76.8
		S278.893,272.067,178.2,272.067z M178.2,135.533c-95.573,0-162.133,31.573-162.133,59.733S82.627,255,178.2,255
		s162.133-31.573,162.133-59.733S273.773,135.533,178.2,135.533z"/>
	<path d="M178.2,391.533C77.507,391.533-1,357.4-1,314.733V195.267h17.067c0,28.16,66.56,59.733,162.133,59.733
		s162.133-31.573,162.133-59.733H357.4v119.467C357.4,357.4,278.893,391.533,178.2,391.533z M16.067,228.547v86.187
		c0,28.16,66.56,59.733,162.133,59.733s162.133-31.573,162.133-59.733v-86.187c-28.16,25.6-89.6,43.52-162.133,43.52
		S44.227,254.147,16.067,228.547z"/>
	<path d="M178.2,229.4c-34.133,0-68.267-11.947-68.267-34.133s34.133-34.133,68.267-34.133s68.267,11.947,68.267,34.133
		S212.333,229.4,178.2,229.4z M178.2,178.2c-31.573,0-51.2,11.093-51.2,17.067s19.627,17.067,51.2,17.067s51.2-11.093,51.2-17.067
		S209.773,178.2,178.2,178.2z"/>
	<path d="M50.2,289.133c-5.12,0-8.533-3.413-8.533-8.533v-34.133c0-5.12,3.413-8.533,8.533-8.533s8.533,3.413,8.533,8.533V280.6
		C58.733,285.72,55.32,289.133,50.2,289.133z"/>
	<path d="M92.867,289.133c-5.12,0-8.533-3.413-8.533-8.533V255c0-5.12,3.413-8.533,8.533-8.533S101.4,249.88,101.4,255v25.6
		C101.4,285.72,97.987,289.133,92.867,289.133z"/>
	<path d="M135.533,306.2c-5.12,0-8.533-3.413-8.533-8.533v-34.133c0-5.12,3.413-8.533,8.533-8.533s8.533,3.413,8.533,8.533v34.133
		C144.067,302.787,140.653,306.2,135.533,306.2z"/>
	<path d="M178.2,297.667c-5.12,0-8.533-3.413-8.533-8.533v-25.6c0-5.12,3.413-8.533,8.533-8.533c5.12,0,8.533,3.413,8.533,8.533
		v25.6C186.733,294.253,183.32,297.667,178.2,297.667z"/>
	<path d="M178.2,391.533c-5.12,0-8.533-3.413-8.533-8.533v-25.6c0-5.12,3.413-8.533,8.533-8.533c5.12,0,8.533,3.413,8.533,8.533V383
		C186.733,388.12,183.32,391.533,178.2,391.533z"/>
	<path d="M220.867,383c-5.12,0-8.533-3.413-8.533-8.533v-25.6c0-5.12,3.413-8.533,8.533-8.533c5.12,0,8.533,3.413,8.533,8.533v25.6
		C229.4,379.587,225.987,383,220.867,383z"/>
	<path d="M263.533,374.467c-5.12,0-8.533-3.413-8.533-8.533v-25.6c0-5.12,3.413-8.533,8.533-8.533c5.12,0,8.533,3.413,8.533,8.533
		v25.6C272.067,371.053,268.653,374.467,263.533,374.467z"/>
	<path d="M306.2,365.933c-5.12,0-8.533-3.413-8.533-8.533v-25.6c0-5.12,3.413-8.533,8.533-8.533s8.533,3.413,8.533,8.533v25.6
		C314.733,362.52,311.32,365.933,306.2,365.933z"/>
	<path d="M220.867,306.2c-5.12,0-8.533-3.413-8.533-8.533v-34.133c0-5.12,3.413-8.533,8.533-8.533c5.12,0,8.533,3.413,8.533,8.533
		v34.133C229.4,302.787,225.987,306.2,220.867,306.2z"/>
	<path d="M263.533,289.133c-5.12,0-8.533-3.413-8.533-8.533V255c0-5.12,3.413-8.533,8.533-8.533c5.12,0,8.533,3.413,8.533,8.533
		v25.6C272.067,285.72,268.653,289.133,263.533,289.133z"/>
	<path d="M383,289.133c-5.12,0-8.533-3.413-8.533-8.533v-34.133c0-5.12,3.413-8.533,8.533-8.533c5.12,0,8.533,3.413,8.533,8.533
		V280.6C391.533,285.72,388.12,289.133,383,289.133z"/>
	<path d="M400.067,365.933c-5.12,0-8.533-3.413-8.533-8.533v-34.133c0-5.12,3.413-8.533,8.533-8.533s8.533,3.413,8.533,8.533V357.4
		C408.6,362.52,405.187,365.933,400.067,365.933z"/>
	<path d="M417.133,289.133c-5.12,0-8.533-3.413-8.533-8.533V255c0-5.12,3.413-8.533,8.533-8.533s8.533,3.413,8.533,8.533v25.6
		C425.667,285.72,422.253,289.133,417.133,289.133z"/>
	<path d="M306.2,289.133c-5.12,0-8.533-3.413-8.533-8.533v-34.133c0-5.12,3.413-8.533,8.533-8.533s8.533,3.413,8.533,8.533V280.6
		C314.733,285.72,311.32,289.133,306.2,289.133z"/>
	<path d="M135.533,383c-5.12,0-8.533-3.413-8.533-8.533v-25.6c0-5.12,3.413-8.533,8.533-8.533s8.533,3.413,8.533,8.533v25.6
		C144.067,379.587,140.653,383,135.533,383z"/>
	<path d="M92.867,374.467c-5.12,0-8.533-3.413-8.533-8.533v-25.6c0-5.12,3.413-8.533,8.533-8.533s8.533,3.413,8.533,8.533v25.6
		C101.4,371.053,97.987,374.467,92.867,374.467z"/>
	<path d="M50.2,365.933c-5.12,0-8.533-3.413-8.533-8.533v-25.6c0-5.12,3.413-8.533,8.533-8.533s8.533,3.413,8.533,8.533v25.6
		C58.733,362.52,55.32,365.933,50.2,365.933z"/>
</g>
<g>
</g>
<g>
</g>
<g>
</g>
<g>
</g>
<g>
</g>
<g>
</g>
<g>
</g>
<g>
</g>
<g>
</g>
<g>
</g>
<g>
</g>
<g>
</g>
<g>
</g>
<g>
</g>
<g>
</g>
</svg>
